<svg xmlns="http://www.w3.org/2000/svg" viewBox="0 0 400 400"><title>code assembly</title><g id="0b6f0a07-2ae9-4077-ac96-42fdc93a6dd4" data-name="Layer 2"><path d="M188.11,200l87.5-87.21L202.32,40.07a35.39,35.39,0,0,0-49.73,0L16.41,175.24a34.93,34.93,0,0,0,0,49.52L152.59,359.93a35.38,35.38,0,0,0,49.73,0l73-72.43ZM163.86,51.42a19.37,19.37,0,0,1,27.19,0l61.74,61.29-76,76-75.34-75.33ZM22.12,200a18.77,18.77,0,0,1,5.56-13.41L90.1,124.64,165.48,200,90.12,275.38l-62.44-62A18.77,18.77,0,0,1,22.12,200ZM191.05,348.58a19.37,19.37,0,0,1-27.19,0l-62.38-61.93,75.32-75.32,76,76Z" fill="#0065ab"/><path d="M309.16,298.94l74.43-73.87a34.93,34.93,0,0,0,0-49.52l-74.38-73.83-98.6,98.63Zm63.16-85.23-63.1,62.63-76-76,76-76,63.08,62.61a18.94,18.94,0,0,1,0,26.81Z" fill="#60b515"/></g></svg>