<svg xmlns="http://www.w3.org/2000/svg" viewBox="0 0 400 400"><title>code stream</title><g id="0bf23458-c71c-4413-ac17-6850a1d33895" data-name="Layer 2"><path d="M198.94,389.59a34.19,34.19,0,0,1-24.23-10l-24.29-24.23L306.13,200,150.45,44.64l24.29-24.23a34.36,34.36,0,0,1,48.47,0L378.92,175.78a34.27,34.27,0,0,1,0,48.41L223.17,379.59A34.17,34.17,0,0,1,198.94,389.59Zm-25.87-34.23L186,368.27a18.34,18.34,0,0,0,25.86,0L367.58,212.89a18.25,18.25,0,0,0,0-25.78L211.9,31.73a18.34,18.34,0,0,0-25.86,0L173.11,44.64,328.79,200Z" fill="#0065ab"/><path d="M139.18,329.81a34.15,34.15,0,0,1-24.17-10L90.65,295.57l95.71-95.5-95.71-95.5L115,80.3a34.34,34.34,0,0,1,48.39,0l120,119.75-120,119.76A34.13,34.13,0,0,1,139.18,329.81Zm-25.87-34.24,13,12.95a18.28,18.28,0,0,0,25.76,0L260.74,200.07,152.09,91.65a18.31,18.31,0,0,0-25.8,0l-13,12.94L209,200.07Z" fill="#60b515"/><path d="M80.58,282.88l-59.8-59.66a33.06,33.06,0,0,1,0-46.81l59.63-59.5L163.66,200Zm-.17-143.36L32.08,187.74a17.06,17.06,0,0,0,0,24.15l48.5,48.39L141,200Z" fill="#0065ab"/></g></svg>