<?xml version="1.0" encoding="UTF-8"?>
<svg width="290px" height="56px" viewBox="0 0 290 56" version="1.1" xmlns="http://www.w3.org/2000/svg" xmlns:xlink="http://www.w3.org/1999/xlink">
    <!-- Generator: Sketch 45.1 (43504) - http://www.bohemiancoding.com/sketch -->
    <title>Slice</title>
    <desc>Created with Sketch.</desc>
    <defs></defs>
    <g id="Page-1" stroke="none" stroke-width="1" fill="none" fill-rule="evenodd">
        <g id="FINAL-FILE-GRANT-ORCHARD-BLACK" transform="translate(0.000000, 8.000000)">
            <path d="M20.2551794,11.6819383 C15.5203488,11.6819383 11.6825316,15.5201708 11.6825316,20.2551201 C11.6825316,24.9893575 15.5203488,28.827768 20.2551794,28.827768 C24.9995023,28.827768 28.8296071,24.9780855 28.8296071,20.2551201 C28.8296071,15.5323921 24.9995023,11.6819383 20.2551794,11.6819383 Z M30.9256047,21.2957031 L38.3983432,21.2957031 C38.1367143,25.8804382 36.1534367,30.0249724 33.0892342,33.0891749 C29.7960322,36.3835633 25.2522322,38.4285403 20.2551794,38.4285403 C15.2581267,38.4285403 10.7149199,36.3835633 7.4211247,33.0891749 C4.12673623,29.7947864 2.08175926,25.2515796 2.08175926,20.2551201 C2.08175926,15.2581267 4.12673623,10.7148013 7.4211247,7.42029414 C10.7149199,4.12638027 15.2581267,2.08128465 20.2551794,2.08128465 L20.2551794,0 C14.6838482,0 9.61975674,2.27806993 5.94923963,5.94882435 C2.27872252,9.61946011 0,14.6837296 0,20.2551201 C0,25.8258581 2.27872252,30.8899496 5.94923963,34.5604667 C9.61975674,38.2321703 14.6838482,40.5097063 20.2551794,40.5097063 C25.8259174,40.5097063 30.8900089,38.2321703 34.5617125,34.5604667 C38.2322296,30.8899496 40.5097656,25.8258581 40.5097656,20.2551201 C40.5097656,19.9062816 40.5020532,19.5586296 40.4842553,19.2139439 C37.2978407,19.2139439 34.111426,19.2139439 30.9256047,19.2139439 C30.9914568,19.9062816 30.9914568,20.6039587 30.9256047,21.2957031 Z M20.2551794,13.8280666 C23.8159429,13.8280666 26.6814024,16.7169599 26.6814024,20.2551201 C26.6814024,23.7921531 23.8159429,26.6813431 20.2551794,26.6813431 C16.7056879,26.6813431 13.8283632,23.8040183 13.8283632,20.2551201 C13.8283632,16.7053913 16.7056879,13.8280666 20.2551794,13.8280666 L20.2551794,13.8280666 Z" id="Fill-3" fill="#4781B6"></path>
            <path d="M70.4474591,20.8130841 L74.4527745,20.8130841 L74.4527745,24.0978388 C74.001986,24.4632009 73.4436916,24.7751168 72.7787675,25.0318341 C72.1148949,25.2929322 71.4061624,25.4199766 70.6538843,25.4199766 C69.8516647,25.4199766 69.1307535,25.2832944 68.4911507,25.0073014 C67.851285,24.7313084 67.3062208,24.3457944 66.8547313,23.8560164 C66.4042056,23.3662383 66.0557535,22.7879673 65.8110397,22.1141939 C65.5670269,21.4430491 65.4445386,20.7096963 65.4445386,19.9185164 C65.4445386,19.1799065 65.5700058,18.478972 65.82059,17.8183411 C66.0716121,17.1585864 66.4160339,16.5855724 66.8547313,16.0957944 C67.2936916,15.6060164 67.8203563,15.2143692 68.4349007,14.9252336 C69.0493575,14.6387266 69.7199766,14.4941589 70.4474591,14.4941589 C70.9107769,14.4941589 71.3343166,14.5318341 71.7170269,14.6071846 C72.0993867,14.6816589 72.4501168,14.7850467 72.7695678,14.916472 C73.0897196,15.0496495 73.3874416,15.2047313 73.6627336,15.3869743 C73.9387266,15.5692173 74.2021904,15.7733645 74.4527745,15.9976636 L75.4124416,14.8691589 C75.0861565,14.5940421 74.750847,14.3460864 74.4063376,14.1270444 C74.061215,13.9071262 73.6910339,13.7222547 73.2964953,13.5724299 C72.9019568,13.421729 72.4750876,13.3095794 72.0177278,13.234229 C71.5602804,13.1580023 71.0553446,13.1203271 70.5037091,13.1203271 C69.5131133,13.1203271 68.6133762,13.3060748 67.8044977,13.6749416 C66.9963201,14.0464369 66.3034463,14.5432243 65.7264019,15.1714369 C65.1494451,15.797021 64.7015479,16.5251168 64.3817465,17.3522196 C64.0619451,18.1801986 63.9022196,19.0449766 63.9022196,19.9483061 C63.9022196,20.8884346 64.0560748,21.7724883 64.3629965,22.5995911 C64.6705315,23.4266939 65.1151869,24.1486565 65.6984521,24.7619743 C66.2813668,25.3770444 66.9831776,25.8589369 67.8044977,26.2111565 C68.6259054,26.5616238 69.5565713,26.7359813 70.5972839,26.7359813 C71.7134346,26.7359813 72.7198014,26.5397196 73.6159463,26.1454439 C74.5124416,25.7537967 75.2678738,25.2789136 75.8824182,24.7313084 L75.8824182,19.4970794 L70.4474591,19.4970794 L70.4474591,20.8130841" id="Fill-4" fill="#FFFFFE"></path>
            <path d="M85.2856308,20.0797313 L85.2856308,14.7193341 L89.357535,14.7193341 C90.4265479,14.7193341 91.2568049,14.948014 91.8462909,15.4097547 C92.4388435,15.8671145 92.733236,16.5119743 92.733236,17.3425818 C92.733236,17.7701519 92.648861,18.1539136 92.4795853,18.4929907 C92.3096963,18.8355724 92.0748832,19.1203271 91.7708528,19.3525117 C91.469889,19.5855724 91.1125,19.7669393 90.695882,19.890479 C90.2819801,20.015771 89.8304907,20.0797313 89.3391355,20.0797313 L85.2856308,20.0797313 Z M92.0748832,20.6834112 C92.5138435,20.4713785 92.8929614,20.2058995 93.2133762,19.885222 C93.5328271,19.5662967 93.7801694,19.1895444 93.9557535,18.7558411 C94.13125,18.3247664 94.2191297,17.8314836 94.2191297,17.2803738 C94.2191297,16.6915888 94.1058411,16.1518692 93.8806659,15.6699766 C93.6553154,15.1863318 93.3352512,14.7736565 92.9209112,14.4284463 C92.5079731,14.083236 92.0086449,13.817757 91.4264311,13.6285047 C90.8435164,13.4401285 90.1881425,13.3472547 89.4609229,13.3472547 L83.8003505,13.3472547 L83.8003505,26.5116822 L85.2856308,26.5116822 L85.2856308,21.395736 L89.0472839,21.395736 L92.8649241,26.5116822 L94.6891063,26.5116822 L90.6458528,21.135514 C91.1592874,21.047021 91.6361857,20.8971963 92.0748832,20.6834112 L92.0748832,20.6834112 Z" id="Fill-5" fill="#FFFFFE"></path>
            <path d="M104.506308,21.7155374 L107.51507,15.0005841 L110.505783,21.7155374 L104.506308,21.7155374 Z M106.837967,13.2535047 L100.838843,26.5116822 L102.361974,26.5116822 L103.923394,23.0332944 L111.088697,23.0332944 L112.630929,26.5116822 L114.229585,26.5116822 L108.229761,13.2535047 L106.837967,13.2535047 L106.837967,13.2535047 Z" id="Fill-6" fill="#FFFFFE"></path>
            <polyline id="Fill-7" fill="#FFFFFE" points="131.080315 23.8971963 122.785631 13.3472547 121.394276 13.3472547 121.394276 26.5116822 122.842582 26.5116822 122.842582 15.7172897 131.343166 26.5116822 132.528621 26.5116822 132.528621 13.3472547 131.080315 13.3472547 131.080315 23.8971963"></polyline>
            <polyline id="Fill-8" fill="#FFFFFE" points="139.881425 14.7193341 144.300818 14.7193341 144.300818 26.5116822 145.786799 26.5116822 145.786799 14.7193341 150.207068 14.7193341 150.207068 13.3472547 139.881425 13.3472547 139.881425 14.7193341"></polyline>
            <path d="M167.838201,21.7619743 C167.618283,22.3341121 167.314252,22.8291472 166.92611,23.2488318 C166.537091,23.6685164 166.070093,24.0005841 165.524241,24.2441589 C164.979264,24.489486 164.380841,24.6121495 163.728972,24.6121495 C163.076227,24.6121495 162.475175,24.4859813 161.923189,24.2353972 C161.371203,23.9856893 160.898072,23.645736 160.502921,23.2207944 C160.108645,22.7932243 159.80111,22.2964369 159.582068,21.7242991 C159.36215,21.1539136 159.252629,20.5484813 159.252629,19.911507 C159.252629,19.2701519 159.36215,18.666472 159.582068,18.0943341 C159.80111,17.5239486 160.104264,17.0289136 160.494159,16.609229 C160.882301,16.1895444 161.349299,15.8574766 161.895152,15.6139019 C162.440129,15.3685748 163.039428,15.2459112 163.690421,15.2459112 C164.343166,15.2459112 164.944217,15.3720794 165.496203,15.6209112 C166.048189,15.8723715 166.52132,16.2123248 166.915596,16.6372664 C167.310748,17.0648364 167.618283,17.5616238 167.838201,18.1337617 C168.057243,18.7041472 168.16764,19.3078271 168.16764,19.9483061 C168.16764,20.5879089 168.057243,21.1915888 167.838201,21.7619743 Z M168.674942,15.1153621 C168.073014,14.5002921 167.351928,14.0140187 166.512558,13.6565421 C165.671437,13.2999416 164.744451,13.1203271 163.728972,13.1203271 C162.712617,13.1203271 161.785631,13.3016939 160.944509,13.6653037 C160.104264,14.0297897 159.377044,14.5221963 158.76285,15.1433995 C158.148657,15.7637266 157.672897,16.4874416 157.33382,17.3145444 C156.995619,18.1433995 156.826519,19.0204439 156.826519,19.9483061 C156.826519,20.8752921 156.995619,21.7540888 157.33382,22.5811916 C157.672897,23.4082944 158.142523,24.1293808 158.744451,24.7435748 C159.346379,25.3586449 160.067465,25.8431659 160.906834,26.2015187 C161.747079,26.5581192 162.675818,26.7359813 163.690421,26.7359813 C164.706776,26.7359813 165.633762,26.5563668 166.474007,26.1918808 C167.314252,25.828271 168.041472,25.3358645 168.655666,24.7155374 C169.270736,24.0943341 169.746495,23.3706192 170.085572,22.5435164 C170.423773,21.7155374 170.592874,20.8376168 170.592874,19.911507 C170.592874,18.9827687 170.423773,18.1057243 170.085572,17.2768692 C169.746495,16.4497664 169.276869,15.7278037 168.674942,15.1153621 L168.674942,15.1153621 Z" id="Fill-9" fill="#FFFFFE"></path>
            <path d="M180.260514,19.8720794 L180.260514,15.4342874 L183.635514,15.4342874 C184.503797,15.4342874 185.178446,15.6191589 185.655082,15.9924065 C186.132593,16.3612734 186.370911,16.9132593 186.370911,17.6439836 C186.370911,18.3247664 186.127336,18.8671145 185.635806,19.2675234 C185.146904,19.6714369 184.484521,19.8720794 183.653914,19.8720794 L180.260514,19.8720794 Z M186.851051,20.9909463 C187.233937,20.7587617 187.563376,20.4775117 187.838493,20.1454439 C188.114486,19.8142523 188.3309,19.4313668 188.487734,18.9976636 C188.643692,18.5648364 188.722547,18.0741822 188.722547,17.5221963 C188.722547,16.8834696 188.609521,16.3016939 188.385222,15.7830023 C188.157418,15.2616822 187.834988,14.8218458 187.415304,14.4661215 C186.995619,14.1077687 186.481308,13.8326519 185.874124,13.6372664 C185.265187,13.4445093 184.586157,13.3472547 183.832652,13.3472547 L177.965829,13.3472547 L177.965829,26.5116822 L180.260514,26.5116822 L180.260514,21.9231893 L183.165012,21.9231893 L186.408586,26.5116822 L189.136974,26.5116822 L185.581484,21.5271612 C186.046729,21.4018692 186.468166,21.224007 186.851051,20.9909463 L186.851051,20.9909463 Z" id="Fill-10" fill="#FFFFFE"></path>
            <path d="M204.387558,24.1504089 C203.812792,24.4579439 203.122371,24.6121495 202.319801,24.6121495 C201.693341,24.6121495 201.112442,24.489486 200.579731,24.2441589 C200.047021,24.0005841 199.586157,23.6650117 199.198014,23.2391939 C198.809871,22.8142523 198.507593,22.3148364 198.295561,21.7435748 C198.081776,21.1731893 197.975759,20.5616238 197.975759,19.911507 C197.975759,19.2587617 198.081776,18.6498248 198.295561,18.0873248 C198.507593,17.5221963 198.809871,17.0289136 199.198014,16.609229 C199.586157,16.1895444 200.047021,15.8574766 200.579731,15.6139019 C201.112442,15.3685748 201.693341,15.2459112 202.319801,15.2459112 C203.071554,15.2459112 203.742699,15.3966121 204.331484,15.698014 C204.922021,15.9976636 205.479264,16.3936916 206.005841,16.8834696 L207.492699,15.1714369 C207.178154,14.8691589 206.846086,14.5940421 206.494743,14.3443341 C206.144276,14.0928738 205.762266,13.8755841 205.347839,13.6933411 C204.933411,13.5119743 204.479556,13.3709112 203.984521,13.2719042 C203.490362,13.1711449 202.940129,13.1203271 202.338201,13.1203271 C201.334988,13.1203271 200.420269,13.2999416 199.593166,13.6565421 C198.764311,14.0140187 198.050234,14.5037967 197.448306,15.125 C196.847255,15.7444509 196.380257,16.4690421 196.048189,17.2961449 C195.716121,18.1241238 195.548773,19.0073014 195.548773,19.9483061 C195.548773,20.9015771 195.717874,21.791764 196.056951,22.6188668 C196.396904,23.4450935 196.863902,24.1635514 197.457944,24.770736 C198.054614,25.3805491 198.759054,25.8589369 199.574766,26.2111565 C200.388727,26.5616238 201.278914,26.7359813 202.244451,26.7359813 C202.859521,26.7359813 203.420269,26.6834112 203.928446,26.5765187 C204.436624,26.4696262 204.903621,26.3136682 205.328563,26.1086449 C205.754381,25.9001168 206.153914,25.6565421 206.523657,25.3735397 C206.8934,25.0922897 207.247371,24.7689836 207.586449,24.4053738 L206.099591,22.9001168 C205.535339,23.4266939 204.964953,23.8455023 204.387558,24.1504089" id="Fill-11" fill="#FFFFFE"></path>
            <polyline id="Fill-12" fill="#FFFFFE" points="223.195386 18.8198014 216.877336 18.8198014 216.877336 13.3472547 214.582652 13.3472547 214.582652 26.5116822 216.877336 26.5116822 216.877336 20.9629089 223.195386 20.9629089 223.195386 26.5116822 225.490946 26.5116822 225.490946 13.3472547 223.195386 13.3472547 223.195386 18.8198014"></polyline>
            <path d="M236.887266,21.2835864 L239.142523,16.0169393 L241.418808,21.2835864 L236.887266,21.2835864 Z M238.109521,13.2535047 L232.315421,26.5116822 L234.685456,26.5116822 L236.041764,23.3329439 L242.266063,23.3329439 L243.601343,26.5116822 L246.046729,26.5116822 L240.252629,13.2535047 L238.109521,13.2535047 L238.109521,13.2535047 Z" id="Fill-13" fill="#FFFFFE"></path>
            <path d="M255.166764,19.8720794 L255.166764,15.4342874 L258.543516,15.4342874 C259.410923,15.4342874 260.084696,15.6191589 260.560456,15.9924065 C261.040596,16.3612734 261.278914,16.9132593 261.278914,17.6439836 C261.278914,18.3247664 261.035339,18.8671145 260.542056,19.2675234 C260.053154,19.6714369 259.392523,19.8720794 258.561916,19.8720794 L255.166764,19.8720794 Z M261.759054,20.9909463 C262.141063,20.7587617 262.469626,20.4775117 262.746495,20.1454439 C263.022488,19.8142523 263.238026,19.4313668 263.395736,18.9976636 C263.551694,18.5648364 263.630549,18.0741822 263.630549,17.5221963 C263.630549,16.8834696 263.517523,16.3016939 263.290596,15.7830023 C263.065421,15.2616822 262.742991,14.8218458 262.323306,14.4661215 C261.903621,14.1077687 261.389311,13.8326519 260.780374,13.6372664 C260.172313,13.4445093 259.49153,13.3472547 258.739778,13.3472547 L252.871203,13.3472547 L252.871203,26.5116822 L255.166764,26.5116822 L255.166764,21.9231893 L258.073014,21.9231893 L261.316589,26.5116822 L264.044977,26.5116822 L260.489486,21.5271612 C260.952103,21.4018692 261.376168,21.224007 261.759054,20.9909463 L261.759054,20.9909463 Z" id="Fill-14" fill="#FFFFFE"></path>
            <path d="M280.190129,21.7505841 C279.971086,22.2981893 279.659171,22.7730724 279.264019,23.166472 C278.869743,23.5660047 278.386098,23.8735397 277.821846,24.0943341 C277.255841,24.3133762 276.629381,24.4237734 275.935456,24.4237734 L273.334988,24.4237734 L273.334988,15.4342874 L275.935456,15.4342874 C276.629381,15.4342874 277.255841,15.5464369 277.821846,15.7733645 C278.386098,16.0020444 278.869743,16.3148364 279.264019,16.7196262 C279.659171,17.1209112 279.971086,17.5975467 280.190129,18.1451519 C280.409171,18.6910047 280.517815,19.2920561 280.517815,19.9483061 C280.517815,20.6028037 280.409171,21.2047313 280.190129,21.7505841 Z M282.436624,17.3145444 C282.098423,16.5119743 281.619159,15.8162967 280.997956,15.2275117 C280.376752,14.6387266 279.63639,14.1778621 278.777745,13.8457944 C277.9191,13.5119743 276.976343,13.3472547 275.948598,13.3472547 L271.040304,13.3472547 L271.040304,26.5116822 L275.948598,26.5116822 C276.976343,26.5116822 277.9191,26.3425818 278.777745,26.0035047 C279.63639,25.6653037 280.376752,25.2009346 280.997956,24.6121495 C281.619159,24.0224883 282.098423,23.3233061 282.436624,22.515479 C282.775701,21.7058995 282.943925,20.8376168 282.943925,19.911507 C282.943925,18.9827687 282.775701,18.1162383 282.436624,17.3145444 L282.436624,17.3145444 Z" id="Fill-15" fill="#FFFFFE"></path>
        </g>
    </g>
</svg>