<?xml version="1.0" encoding="UTF-8"?>
<svg width="41px" height="41px" viewBox="0 0 41 41" version="1.1" xmlns="http://www.w3.org/2000/svg" xmlns:xlink="http://www.w3.org/1999/xlink">
    <!-- Generator: Sketch 50.2 (55047) - http://www.bohemiancoding.com/sketch -->
    <title>Fill-3</title>
    <desc>Created with Sketch.</desc>
    <defs></defs>
    <g id="Page-1" stroke="none" stroke-width="1" fill="none" fill-rule="evenodd">
        <path d="M20.2551794,11.6819383 C15.5203488,11.6819383 11.6825316,15.5201708 11.6825316,20.2551201 C11.6825316,24.9893575 15.5203488,28.827768 20.2551794,28.827768 C24.9995023,28.827768 28.8296071,24.9780855 28.8296071,20.2551201 C28.8296071,15.5323921 24.9995023,11.6819383 20.2551794,11.6819383 Z M30.9256047,21.2957031 L38.3983432,21.2957031 C38.1367143,25.8804382 36.1534367,30.0249724 33.0892342,33.0891749 C29.7960322,36.3835633 25.2522322,38.4285403 20.2551794,38.4285403 C15.2581267,38.4285403 10.7149199,36.3835633 7.4211247,33.0891749 C4.12673623,29.7947864 2.08175926,25.2515796 2.08175926,20.2551201 C2.08175926,15.2581267 4.12673623,10.7148013 7.4211247,7.42029414 C10.7149199,4.12638027 15.2581267,2.08128465 20.2551794,2.08128465 L20.2551794,0 C14.6838482,0 9.61975674,2.27806993 5.94923963,5.94882435 C2.27872252,9.61946011 0,14.6837296 0,20.2551201 C0,25.8258581 2.27872252,30.8899496 5.94923963,34.5604667 C9.61975674,38.2321703 14.6838482,40.5097063 20.2551794,40.5097063 C25.8259174,40.5097063 30.8900089,38.2321703 34.5617125,34.5604667 C38.2322296,30.8899496 40.5097656,25.8258581 40.5097656,20.2551201 C40.5097656,19.9062816 40.5020532,19.5586296 40.4842553,19.2139439 C37.2978407,19.2139439 34.111426,19.2139439 30.9256047,19.2139439 C30.9914568,19.9062816 30.9914568,20.6039587 30.9256047,21.2957031 Z M20.2551794,13.8280666 C23.8159429,13.8280666 26.6814024,16.7169599 26.6814024,20.2551201 C26.6814024,23.7921531 23.8159429,26.6813431 20.2551794,26.6813431 C16.7056879,26.6813431 13.8283632,23.8040183 13.8283632,20.2551201 C13.8283632,16.7053913 16.7056879,13.8280666 20.2551794,13.8280666 Z" id="Fill-3" fill="#4781B6" fill-rule="nonzero"></path>
    </g>
</svg>