<?xml version="1.0" encoding="UTF-8"?>
<svg width="551px" height="65px" viewBox="0 0 551 65" version="1.1" xmlns="http://www.w3.org/2000/svg" xmlns:xlink="http://www.w3.org/1999/xlink">
    <!-- Generator: Sketch 54.1 (76490) - https://sketchapp.com -->
    <title>code assembly</title>
    <desc>Created with Sketch.</desc>
    <g id="Page-1" stroke="none" stroke-width="1" fill="none" fill-rule="evenodd">
        <g id="Group" transform="translate(6.000000, 7.000000)">
            <g id="code-assembly" fill-rule="nonzero">
                <path d="M27.0125856,24.9997021 L40,12.1851813 L29.1217417,1.4998018 C27.0759081,-0.499933934 23.7862711,-0.499933934 21.7404375,1.4998018 L1.52756782,21.3615008 C0.549742359,22.3247605 1.31830185e-16,23.6340794 0,24.9997021 C-1.31830185e-16,26.3653248 0.549742359,27.6746436 1.52756782,28.6379034 L21.7404375,48.4996024 C23.7859416,50.5001325 27.0762376,50.5001325 29.1217417,48.4996024 L39.956956,37.856835 L27.0125856,24.9997021 Z M23.4132165,3.16755562 C24.532452,2.07581463 26.3297271,2.07581463 27.4489627,3.16755562 L36.6128823,12.1734262 L25.3323852,23.3407646 L14.1498504,12.2718751 L23.4132165,3.16755562 Z M2.37508938,24.9997021 C2.37208926,24.259897 2.66944206,23.5499148 3.2003468,23.0292546 L12.4651972,13.9264045 L23.6536692,24.9997021 L12.4681657,36.0759384 L3.2003468,26.9657414 C2.67054438,26.4461547 2.37328363,25.7379802 2.37508938,24.9997021 L2.37508938,24.9997021 Z M27.4489627,46.8318485 C26.3297271,47.9235895 24.532452,47.9235895 23.4132165,46.8318485 L14.1543032,37.7319372 L25.3338695,26.6645171 L36.6143666,37.8318555 L27.4489627,46.8318485 Z" id="Shape" fill="#0065AB"></path>
                <path d="M44.5186105,40 L55.4838077,29.1378663 C56.4543515,28.1739167 57,26.86366 57,25.4970591 C57,24.1304583 56.4543515,22.8202016 55.4838077,21.8562519 L44.5259766,11 L30,25.5029409 L44.5186105,40 Z M53.8234856,27.4674475 L44.5274499,36.6768076 L33.3309567,25.5014704 L44.5274499,14.3261333 L53.8205392,23.5325525 C54.3449371,24.054991 54.6396226,24.7641513 54.6396226,25.5036761 C54.6396226,26.2432009 54.3449371,26.9523612 53.8205392,27.4747997 L53.8234856,27.4674475 Z" id="Shape" fill="#60B515"></path>
            </g>
            <text id="Cloud-Automation-Ser" font-family="Metropolis-Light, Metropolis" font-size="24" font-weight="300" letter-spacing="0.100000001" fill="#0079B8">
                <tspan x="80" y="35">Cloud Automation Services</tspan>
                <tspan x="390.66" y="35" font-family="Metropolis-SemiBold, Metropolis" font-weight="500">  SocialLabs</tspan>
            </text>
        </g>
    </g>
</svg>