<?xml version="1.0" encoding="UTF-8"?>
<svg width="509px" height="50px" viewBox="0 0 509 50" version="1.1" xmlns="http://www.w3.org/2000/svg" xmlns:xlink="http://www.w3.org/1999/xlink">
    <!-- Generator: Sketch 54.1 (76490) - https://sketchapp.com -->
    <title>Group</title>
    <desc>Created with Sketch.</desc>
    <g id="Page-1" stroke="none" stroke-width="1" fill="none" fill-rule="evenodd">
        <g id="Group" transform="translate(0.000000, 9.000000)" fill-rule="nonzero">
            <g id="code-assembly" transform="translate(0.000000, 0.000000)">
                <path d="M22.1503202,20.4997557 L32.8,9.99184869 L23.8798282,1.22983748 C22.2022446,-0.409945826 19.5047423,-0.409945826 17.8271587,1.22983748 L1.25260562,17.5164307 C0.450788734,18.3063036 1.08100752e-16,19.3799451 0,20.4997557 C-1.08100752e-16,21.6195663 0.450788734,22.6932078 1.25260562,23.4830808 L17.8271587,39.7696739 C19.5044721,41.4101087 22.2025148,41.4101087 23.8798282,39.7696739 L32.7647039,31.0426047 L22.1503202,20.4997557 Z M19.1988375,2.59739561 C20.1166107,1.70216799 21.5903763,1.70216799 22.5081494,2.59739561 L30.0225635,9.98220951 L20.7725559,19.139427 L11.6028773,10.0629376 L19.1988375,2.59739561 Z M1.94757329,20.4997557 C1.94511319,19.8931155 2.18894249,19.3109301 2.62428438,18.8839888 L10.2214617,11.4196517 L19.3960087,20.4997557 L10.2238959,29.5822695 L2.62428438,22.1119079 C2.18984639,21.6858469 1.94609257,21.1051437 1.94757329,20.4997557 L1.94757329,20.4997557 Z M22.5081494,38.4021158 C21.5903763,39.2973434 20.1166107,39.2973434 19.1988375,38.4021158 L11.6065286,30.9401885 L20.773773,21.864904 L30.0237806,31.0221215 L22.5081494,38.4021158 Z" id="Shape" fill="#0065AB"></path>
                <path d="M36.5052606,32.8 L45.4967223,23.8930504 C46.2925682,23.1026117 46.74,22.0282012 46.74,20.9075885 C46.74,19.7869758 46.2925682,18.7125653 45.4967223,17.9221266 L36.5113009,9.02 L24.6,20.9124115 L36.5052606,32.8 Z M44.1352582,22.523307 L36.5125089,30.0749823 L27.3313845,20.9112058 L36.5125089,11.7474293 L44.1328421,19.296693 C44.5628485,19.7250926 44.8044905,20.306604 44.8044905,20.9130144 C44.8044905,21.5194248 44.5628485,22.1009362 44.1328421,22.5293358 L44.1352582,22.523307 Z" id="Shape" fill="#60B515"></path>
            </g>
            <path d="M81.696,29.288 C77.136,29.288 73.248,25.376 73.248,20.744 C73.248,16.112 77.136,12.224 81.696,12.224 C83.976,12.224 86.088,13.184 87.624,14.744 L86.568,15.8 C85.32,14.504 83.568,13.664 81.696,13.664 C77.952,13.664 74.808,16.904 74.808,20.744 C74.808,24.608 77.952,27.848 81.696,27.848 C83.568,27.848 85.32,27.008 86.568,25.688 L87.624,26.768 C86.088,28.304 83.976,29.288 81.696,29.288 Z M90.244,29 L90.244,12.224 L91.732,12.224 L91.732,29 L90.244,29 Z M101.24,29.288 C97.76,29.288 94.808,26.312 94.808,22.784 C94.808,19.256 97.76,16.304 101.24,16.304 C104.72,16.304 107.648,19.256 107.648,22.784 C107.648,26.312 104.72,29.288 101.24,29.288 Z M101.24,27.92 C103.88,27.92 106.088,25.592 106.088,22.784 C106.088,20 103.88,17.672 101.24,17.672 C98.576,17.672 96.368,20 96.368,22.784 C96.368,25.592 98.576,27.92 101.24,27.92 Z M119.46,16.592 L120.948,16.592 L120.948,29 L119.46,29 L119.46,26.96 C118.788,28.328 117.204,29.288 115.38,29.288 C112.644,29.288 110.724,27.32 110.724,24.56 L110.724,16.592 L112.212,16.592 L112.212,24.368 C112.212,26.456 113.604,27.92 115.572,27.92 C117.756,27.92 119.46,26.408 119.46,24.488 L119.46,16.592 Z M134.488,12.224 L135.976,12.224 L135.976,29 L134.488,29 L134.488,26.576 C133.528,28.256 131.896,29.288 129.856,29.288 C126.664,29.288 124.192,26.504 124.192,22.784 C124.192,19.088 126.664,16.304 129.856,16.304 C131.896,16.304 133.528,17.336 134.488,19.016 L134.488,12.224 Z M130.12,27.92 C132.688,27.92 134.488,25.784 134.488,22.784 C134.488,19.784 132.688,17.672 130.12,17.672 C127.624,17.672 125.728,19.856 125.728,22.784 C125.728,25.712 127.624,27.92 130.12,27.92 Z M160.44,29 L158.736,25.112 L149.28,25.112 L147.576,29 L145.896,29 L153.168,12.512 L154.848,12.512 L162.12,29 L160.44,29 Z M149.952,23.624 L158.064,23.624 L154.008,14.408 L149.952,23.624 Z M173.548,16.592 L175.036,16.592 L175.036,29 L173.548,29 L173.548,26.96 C172.876,28.328 171.292,29.288 169.468,29.288 C166.732,29.288 164.812,27.32 164.812,24.56 L164.812,16.592 L166.3,16.592 L166.3,24.368 C166.3,26.456 167.692,27.92 169.66,27.92 C171.844,27.92 173.548,26.408 173.548,24.488 L173.548,16.592 Z M184.304,27.392 L185.072,28.496 C184.424,29 183.584,29.288 182.768,29.288 C181.088,29.288 179.888,27.968 179.888,26.12 L179.888,17.96 L177.872,17.96 L177.872,16.592 L179.888,16.592 L179.888,13.184 L181.376,13.184 L181.376,16.592 L184.496,16.592 L184.496,17.96 L181.376,17.96 L181.376,26.12 C181.376,27.176 182.048,27.92 182.864,27.92 C183.44,27.92 183.968,27.704 184.304,27.392 Z M193.476,29.288 C189.996,29.288 187.044,26.312 187.044,22.784 C187.044,19.256 189.996,16.304 193.476,16.304 C196.956,16.304 199.884,19.256 199.884,22.784 C199.884,26.312 196.956,29.288 193.476,29.288 Z M193.476,27.92 C196.116,27.92 198.324,25.592 198.324,22.784 C198.324,20 196.116,17.672 193.476,17.672 C190.812,17.672 188.604,20 188.604,22.784 C188.604,25.592 190.812,27.92 193.476,27.92 Z M216.16,16.304 C218.704,16.304 220.504,18.272 220.504,21.032 L220.504,29 L219.016,29 L219.016,21.224 C219.016,19.136 217.744,17.672 215.944,17.672 C213.904,17.672 212.464,19.064 212.464,21.032 L212.464,29 L210.976,29 L210.976,21.224 C210.976,19.136 209.728,17.672 207.928,17.672 C205.888,17.672 204.448,19.064 204.448,21.032 L204.448,29 L202.96,29 L202.96,16.592 L204.448,16.592 L204.448,18.416 C205.048,17.12 206.416,16.304 208.12,16.304 C209.992,16.304 211.432,17.36 212.08,18.992 C212.608,17.36 214.24,16.304 216.16,16.304 Z M229.22,16.304 C232.484,16.304 234.188,18.44 234.188,21.44 L234.188,29 L232.7,29 L232.7,27.032 C231.788,28.496 229.82,29.288 228.14,29.288 C225.548,29.288 223.628,27.728 223.628,25.328 C223.628,22.88 225.764,21.2 228.548,21.2 C229.892,21.2 231.38,21.512 232.7,21.944 L232.7,21.44 C232.7,19.616 231.884,17.624 229.1,17.624 C227.852,17.624 226.556,18.104 225.428,18.728 L224.828,17.504 C226.46,16.64 227.996,16.304 229.22,16.304 Z M228.38,27.944 C230.108,27.944 232.22,27.032 232.7,25.112 L232.7,23.12 C231.524,22.76 230.156,22.496 228.764,22.496 C226.7,22.496 225.092,23.648 225.092,25.256 C225.092,26.912 226.532,27.944 228.38,27.944 Z M243.456,27.392 L244.224,28.496 C243.576,29 242.736,29.288 241.92,29.288 C240.24,29.288 239.04,27.968 239.04,26.12 L239.04,17.96 L237.024,17.96 L237.024,16.592 L239.04,16.592 L239.04,13.184 L240.528,13.184 L240.528,16.592 L243.648,16.592 L243.648,17.96 L240.528,17.96 L240.528,26.12 C240.528,27.176 241.2,27.92 242.016,27.92 C242.592,27.92 243.12,27.704 243.456,27.392 Z M247.588,14.168 C247.012,14.168 246.556,13.712 246.556,13.136 C246.556,12.584 247.012,12.104 247.588,12.104 C248.164,12.104 248.62,12.584 248.62,13.136 C248.62,13.712 248.164,14.168 247.588,14.168 Z M246.844,29 L246.844,16.592 L248.332,16.592 L248.332,29 L246.844,29 Z M257.816,29.288 C254.336,29.288 251.384,26.312 251.384,22.784 C251.384,19.256 254.336,16.304 257.816,16.304 C261.296,16.304 264.224,19.256 264.224,22.784 C264.224,26.312 261.296,29.288 257.816,29.288 Z M257.816,27.92 C260.456,27.92 262.664,25.592 262.664,22.784 C262.664,20 260.456,17.672 257.816,17.672 C255.152,17.672 252.944,20 252.944,22.784 C252.944,25.592 255.152,27.92 257.816,27.92 Z M272.892,16.304 C275.628,16.304 277.548,18.272 277.548,21.032 L277.548,29 L276.06,29 L276.06,21.224 C276.06,19.136 274.668,17.672 272.7,17.672 C270.516,17.672 268.812,19.184 268.812,21.104 L268.812,29 L267.324,29 L267.324,16.592 L268.812,16.592 L268.812,18.632 C269.484,17.264 271.068,16.304 272.892,16.304 Z M294.14,29.264 C291.524,29.264 289.292,28.28 287.636,26.648 L288.596,25.448 C290.036,26.888 291.908,27.848 294.188,27.848 C296.804,27.848 298.316,26.408 298.316,24.728 C298.316,22.928 296.804,22.112 293.684,21.392 C290.204,20.576 288.284,19.496 288.284,16.904 C288.284,14.216 290.588,12.2 293.732,12.2 C296.036,12.2 297.932,13.136 299.492,14.552 L298.532,15.752 C297.164,14.408 295.436,13.616 293.66,13.616 C291.428,13.616 289.844,15.032 289.844,16.784 C289.844,18.44 291.404,19.16 294.452,19.904 C297.836,20.696 299.876,21.896 299.876,24.584 C299.876,27.224 297.788,29.264 294.14,29.264 Z M308.64,27.92 C310.2,27.92 311.904,27.296 312.768,26.36 L313.704,27.368 C312.648,28.52 310.464,29.288 308.64,29.288 C305.328,29.288 302.424,26.48 302.424,22.76 C302.424,19.088 305.184,16.304 308.544,16.304 C312.216,16.304 314.424,19.112 314.424,23.384 L303.936,23.384 C304.2,25.952 306.096,27.92 308.64,27.92 Z M308.592,17.672 C306.168,17.672 304.272,19.448 303.96,22.016 L312.936,22.016 C312.744,19.52 311.208,17.672 308.592,17.672 Z M319.132,19.136 C319.828,17.456 321.652,16.304 323.932,16.304 L323.932,17.672 C321.124,17.672 319.132,19.496 319.132,22.064 L319.132,29 L317.644,29 L317.644,16.592 L319.132,16.592 L319.132,19.136 Z M330.776,29 L325.352,16.592 L327.008,16.592 L331.424,27.104 L335.816,16.592 L337.472,16.592 L332.096,29 L330.776,29 Z M340.764,14.168 C340.188,14.168 339.732,13.712 339.732,13.136 C339.732,12.584 340.188,12.104 340.764,12.104 C341.34,12.104 341.796,12.584 341.796,13.136 C341.796,13.712 341.34,14.168 340.764,14.168 Z M340.02,29 L340.02,16.592 L341.508,16.592 L341.508,29 L340.02,29 Z M350.92,29.288 C347.392,29.288 344.56,26.408 344.56,22.784 C344.56,19.16 347.392,16.304 350.92,16.304 C352.576,16.304 354.112,17 355.264,18.128 L354.232,19.136 C353.368,18.224 352.192,17.672 350.92,17.672 C348.232,17.672 346.12,19.928 346.12,22.784 C346.12,25.664 348.232,27.92 350.92,27.92 C352.216,27.92 353.416,27.344 354.28,26.408 L355.312,27.416 C354.16,28.568 352.6,29.288 350.92,29.288 Z M363.716,27.92 C365.276,27.92 366.98,27.296 367.844,26.36 L368.78,27.368 C367.724,28.52 365.54,29.288 363.716,29.288 C360.404,29.288 357.5,26.48 357.5,22.76 C357.5,19.088 360.26,16.304 363.62,16.304 C367.292,16.304 369.5,19.112 369.5,23.384 L359.012,23.384 C359.276,25.952 361.172,27.92 363.716,27.92 Z M363.668,17.672 C361.244,17.672 359.348,19.448 359.036,22.016 L368.012,22.016 C367.82,19.52 366.284,17.672 363.668,17.672 Z M376.944,29.288 C375.192,29.288 373.272,28.616 371.808,27.44 L372.6,26.336 C374.04,27.368 375.552,27.92 376.944,27.92 C378.648,27.92 379.92,27.056 379.92,25.856 C379.92,24.512 378.6,23.936 376.632,23.336 C373.656,22.472 372.48,21.536 372.48,19.784 C372.48,17.72 374.352,16.304 376.752,16.304 C378.264,16.304 379.872,16.832 381.192,17.696 L380.448,18.848 C379.2,18.08 377.904,17.672 376.752,17.672 C375.24,17.672 373.968,18.416 373.968,19.616 C373.968,20.744 374.928,21.248 377.352,22.04 C379.632,22.76 381.408,23.552 381.408,25.712 C381.408,27.824 379.44,29.288 376.944,29.288 Z M397.352,29.264 C395.959993,29.264 394.668006,29.0360023 393.476,28.58 C392.283994,28.1239977 391.224005,27.4640043 390.296,26.6 L392.024,24.464 C393.672008,25.9520074 395.47999,26.696 397.448,26.696 C398.424005,26.696 399.183997,26.4880021 399.728,26.072 C400.272003,25.6559979 400.544,25.1360031 400.544,24.512 C400.544,24.0639978 400.412001,23.7000014 400.148,23.42 C399.883999,23.1399986 399.492003,22.900001 398.972,22.7 C398.451997,22.499999 397.704005,22.2880011 396.728,22.064 C395.447994,21.7599985 394.400004,21.4280018 393.584,21.068 C392.767996,20.7079982 392.124002,20.2200031 391.652,19.604 C391.179998,18.9879969 390.944,18.184005 390.944,17.192 C390.944,16.2479953 391.195998,15.3960038 391.7,14.636 C392.204003,13.8759962 392.907996,13.2800022 393.812,12.848 C394.716005,12.4159978 395.735994,12.2 396.872,12.2 C398.120006,12.2 399.255995,12.395998 400.28,12.788 C401.304005,13.180002 402.247996,13.7519962 403.112,14.504 L401.48,16.712 C400.759996,16.0879969 399.996004,15.6080017 399.188,15.272 C398.379996,14.9359983 397.568004,14.768 396.752,14.768 C395.935996,14.768 395.268003,14.9799979 394.748,15.404 C394.227997,15.8280021 393.968,16.335997 393.968,16.928 C393.968,17.5680032 394.255997,18.0519984 394.832,18.38 C395.408003,18.7080016 396.399993,19.0319984 397.808,19.352 C399.71201,19.7840022 401.143995,20.3559964 402.104,21.068 C403.064005,21.7800036 403.544,22.831993 403.544,24.224 C403.544,25.216005 403.300002,26.0919962 402.812,26.852 C402.323998,27.6120038 401.612005,28.2039979 400.676,28.628 C399.739995,29.0520021 398.632006,29.264 397.352,29.264 Z M412.284,29.288 C411.099994,29.288 410.000005,28.992003 408.984,28.4 C407.967995,27.807997 407.156003,27.012005 406.548,26.012 C405.939997,25.011995 405.636,23.9360058 405.636,22.784 C405.636,21.6319942 405.939997,20.560005 406.548,19.568 C407.156003,18.575995 407.967995,17.784003 408.984,17.192 C410.000005,16.599997 411.099994,16.304 412.284,16.304 C413.468006,16.304 414.567995,16.599997 415.584,17.192 C416.600005,17.784003 417.411997,18.575995 418.02,19.568 C418.628003,20.560005 418.932,21.6319942 418.932,22.784 C418.932,23.9360058 418.628003,25.011995 418.02,26.012 C417.411997,27.012005 416.600005,27.807997 415.584,28.4 C414.567995,28.992003 413.468006,29.288 412.284,29.288 Z M412.284,26.792 C412.956003,26.792 413.579997,26.6120018 414.156,26.252 C414.732003,25.8919982 415.191998,25.4040031 415.536,24.788 C415.880002,24.1719969 416.052,23.5040036 416.052,22.784 C416.052,22.0799965 415.880002,21.4200031 415.536,20.804 C415.191998,20.1879969 414.732003,19.7000018 414.156,19.34 C413.579997,18.9799982 412.956003,18.8 412.284,18.8 C411.611997,18.8 410.984003,18.9799982 410.4,19.34 C409.815997,19.7000018 409.352002,20.1879969 409.008,20.804 C408.663998,21.4200031 408.492,22.0799965 408.492,22.784 C408.492,23.5040036 408.663998,24.1719969 409.008,24.788 C409.352002,25.4040031 409.815997,25.8919982 410.4,26.252 C410.984003,26.6120018 411.611997,26.792 412.284,26.792 Z M427.552,29.288 C426.383994,29.288 425.292005,28.992003 424.276,28.4 C423.259995,27.807997 422.448003,27.012005 421.84,26.012 C421.231997,25.011995 420.928,23.9360058 420.928,22.784 C420.928,21.6319942 421.231997,20.560005 421.84,19.568 C422.448003,18.575995 423.263995,17.784003 424.288,17.192 C425.312005,16.599997 426.415994,16.304 427.6,16.304 C428.512005,16.304 429.371996,16.4839982 430.18,16.844 C430.988004,17.2040018 431.695997,17.6959969 432.304,18.32 L430.336,20.048 C429.999998,19.6639981 429.584003,19.3600011 429.088,19.136 C428.591998,18.9119989 428.088003,18.8 427.576,18.8 C426.903997,18.8 426.280003,18.9799982 425.704,19.34 C425.127997,19.7000018 424.672002,20.1879969 424.336,20.804 C423.999998,21.4200031 423.832,22.0799965 423.832,22.784 C423.832,23.5040036 423.999998,24.1719969 424.336,24.788 C424.672002,25.4040031 425.127997,25.8919982 425.704,26.252 C426.280003,26.6120018 426.903997,26.792 427.576,26.792 C428.104003,26.792 428.619998,26.6760012 429.124,26.444 C429.628003,26.2119988 430.055998,25.896002 430.408,25.496 L432.376,27.2 C431.751997,27.8560033 431.032004,28.3679982 430.216,28.736 C429.399996,29.1040018 428.512005,29.288 427.552,29.288 Z M436.268,14.72 C435.803998,14.72 435.408002,14.5520017 435.08,14.216 C434.751998,13.8799983 434.588,13.4880022 434.588,13.04 C434.588,12.5919978 434.751998,12.2040016 435.08,11.876 C435.408002,11.5479984 435.803998,11.384 436.268,11.384 C436.716002,11.384 437.103998,11.5479984 437.432,11.876 C437.760002,12.2040016 437.924,12.5919978 437.924,13.04 C437.924,13.4880022 437.760002,13.8799983 437.432,14.216 C437.103998,14.5520017 436.716002,14.72 436.268,14.72 Z M434.78,16.592 L437.708,16.592 L437.708,29 L434.78,29 L434.78,16.592 Z M446.448,16.304 C448.080008,16.304 449.375995,16.7799952 450.336,17.732 C451.296005,18.6840048 451.776,19.9519921 451.776,21.536 L451.776,29 L448.92,29 L448.92,27.512 C448.471998,28.0720028 447.892004,28.5079984 447.18,28.82 C446.467996,29.1320016 445.744004,29.288 445.008,29.288 C444.127996,29.288 443.336004,29.1240016 442.632,28.796 C441.927997,28.4679984 441.376002,28.004003 440.976,27.404 C440.575998,26.803997 440.376,26.1120039 440.376,25.328 C440.376,24.527996 440.603998,23.8160031 441.06,23.192 C441.516002,22.5679969 442.127996,22.0800018 442.896,21.728 C443.664004,21.3759982 444.511995,21.2 445.44,21.2 C446.592006,21.2 447.751994,21.4239978 448.92,21.872 L448.92,21.536 C448.92,20.735996 448.676002,20.0640027 448.188,19.52 C447.699998,18.9759973 446.928005,18.704 445.872,18.704 C444.879995,18.704 443.760006,19.0159969 442.512,19.64 L441.504,17.6 C443.264009,16.7359957 444.911992,16.304 446.448,16.304 Z M445.656,27.152 C446.408004,27.152 447.099997,26.9680018 447.732,26.6 C448.364003,26.2319982 448.759999,25.7360031 448.92,25.112 L448.92,23.72 C447.991995,23.3999984 446.976006,23.24 445.872,23.24 C445.135996,23.24 444.512003,23.4279981 444,23.804 C443.487997,24.1800019 443.232,24.6559971 443.232,25.232 C443.232,25.8080029 443.459998,26.2719982 443.916,26.624 C444.372002,26.9760018 444.951997,27.152 445.656,27.152 Z M466.444,26.264 L466.444,29 L454.996,29 L454.996,12.512 L457.972,12.512 L457.972,26.264 L466.444,26.264 Z M474.272,16.304 C475.904008,16.304 477.199995,16.7799952 478.16,17.732 C479.120005,18.6840048 479.6,19.9519921 479.6,21.536 L479.6,29 L476.744,29 L476.744,27.512 C476.295998,28.0720028 475.716004,28.5079984 475.004,28.82 C474.291996,29.1320016 473.568004,29.288 472.832,29.288 C471.951996,29.288 471.160004,29.1240016 470.456,28.796 C469.751997,28.4679984 469.200002,28.004003 468.8,27.404 C468.399998,26.803997 468.2,26.1120039 468.2,25.328 C468.2,24.527996 468.427998,23.8160031 468.884,23.192 C469.340002,22.5679969 469.951996,22.0800018 470.72,21.728 C471.488004,21.3759982 472.335995,21.2 473.264,21.2 C474.416006,21.2 475.575994,21.4239978 476.744,21.872 L476.744,21.536 C476.744,20.735996 476.500002,20.0640027 476.012,19.52 C475.523998,18.9759973 474.752005,18.704 473.696,18.704 C472.703995,18.704 471.584006,19.0159969 470.336,19.64 L469.328,17.6 C471.088009,16.7359957 472.735992,16.304 474.272,16.304 Z M473.48,27.152 C474.232004,27.152 474.923997,26.9680018 475.556,26.6 C476.188003,26.2319982 476.583999,25.7360031 476.744,25.112 L476.744,23.72 C475.815995,23.3999984 474.800006,23.24 473.696,23.24 C472.959996,23.24 472.336003,23.4279981 471.824,23.804 C471.311997,24.1800019 471.056,24.6559971 471.056,25.232 C471.056,25.8080029 471.283998,26.2719982 471.74,26.624 C472.196002,26.9760018 472.775997,27.152 473.48,27.152 Z M490.188,16.304 C491.276005,16.304 492.251996,16.5799972 493.116,17.132 C493.980004,17.6840028 494.655998,18.4519951 495.144,19.436 C495.632002,20.4200049 495.876,21.5359938 495.876,22.784 C495.876,24.0320062 495.632002,25.151995 495.144,26.144 C494.655998,27.136005 493.980004,27.9079972 493.116,28.46 C492.251996,29.0120028 491.276005,29.288 490.188,29.288 C489.275995,29.288 488.452004,29.092002 487.716,28.7 C486.979996,28.307998 486.364003,27.7520036 485.868,27.032 L485.868,29 L482.94,29 L482.94,12.224 L485.868,12.224 L485.868,18.56 C486.364003,17.8399964 486.979996,17.284002 487.716,16.892 C488.452004,16.499998 489.275995,16.304 490.188,16.304 Z M489.396,26.792 C490.436005,26.792 491.291997,26.4160038 491.964,25.664 C492.636003,24.9119962 492.972,23.9520058 492.972,22.784 C492.972,21.6159942 492.636003,20.6600037 491.964,19.916 C491.291997,19.1719963 490.436005,18.8 489.396,18.8 C488.371995,18.8 487.532003,19.1719963 486.876,19.916 C486.219997,20.6600037 485.892,21.6159942 485.892,22.784 C485.892,23.9520058 486.219997,24.9119962 486.876,25.664 C487.532003,26.4160038 488.371995,26.792 489.396,26.792 Z M503.2,29.288 C502.239995,29.288 501.280005,29.1240016 500.32,28.796 C499.359995,28.4679984 498.512004,28.008003 497.776,27.416 L499.096,25.376 C500.424007,26.3360048 501.807993,26.816 503.248,26.816 C503.840003,26.816 504.319998,26.7000012 504.688,26.468 C505.056002,26.2359988 505.24,25.9280019 505.24,25.544 C505.24,25.1119978 505.044002,24.7880011 504.652,24.572 C504.259998,24.3559989 503.624004,24.1280012 502.744,23.888 C501.735995,23.6319987 500.924003,23.3600014 500.308,23.072 C499.691997,22.7839986 499.208002,22.4120023 498.856,21.956 C498.503998,21.4999977 498.328,20.9200035 498.328,20.216 C498.328,19.4479962 498.523998,18.768003 498.916,18.176 C499.308002,17.583997 499.859996,17.1240016 500.572,16.796 C501.284004,16.4679984 502.095995,16.304 503.008,16.304 C503.840004,16.304 504.663996,16.4359987 505.48,16.7 C506.296004,16.9640013 507.055997,17.3279977 507.76,17.792 L506.536,19.928 C505.959997,19.5599982 505.364003,19.280001 504.748,19.088 C504.131997,18.895999 503.552003,18.8 503.008,18.8 C502.479997,18.8 502.044002,18.899999 501.7,19.1 C501.355998,19.300001 501.184,19.5679983 501.184,19.904 C501.184,20.1600013 501.263999,20.3719992 501.424,20.54 C501.584001,20.7080008 501.831998,20.8559994 502.168,20.984 C502.504002,21.1120006 503.023997,21.279999 503.728,21.488 C504.624005,21.7280012 505.367997,21.9839986 505.96,22.256 C506.552003,22.5280014 507.051998,22.9159975 507.46,23.42 C507.868002,23.9240025 508.072,24.575996 508.072,25.376 C508.072,26.5600059 507.624005,27.5079964 506.728,28.22 C505.831996,28.9320036 504.656007,29.288 503.2,29.288 Z" id="CloudAutomationServicesSociaLabs" fill="#FFFFFF"></path>
        </g>
    </g>
</svg>